<?xml version="1.0" encoding="UTF-8" standalone="no"?>
<!-- Created with Inkscape (http://www.inkscape.org/) -->

<svg
   width="26.617018mm"
   height="23.063076mm"
   viewBox="0 0 26.617018 23.063076"
   version="1.1"
   id="svg1"
   xml:space="preserve"
   inkscape:version="1.4.2 (f4327f4, 2025-05-13)"
   sodipodi:docname="ability-number-bg.svg"
   xmlns:inkscape="http://www.inkscape.org/namespaces/inkscape"
   xmlns:sodipodi="http://sodipodi.sourceforge.net/DTD/sodipodi-0.dtd"
   xmlns="http://www.w3.org/2000/svg"
   xmlns:svg="http://www.w3.org/2000/svg"><sodipodi:namedview
     id="namedview1"
     pagecolor="#505050"
     bordercolor="#eeeeee"
     borderopacity="1"
     inkscape:showpageshadow="0"
     inkscape:pageopacity="0"
     inkscape:pagecheckerboard="0"
     inkscape:deskcolor="#505050"
     inkscape:document-units="mm"
     inkscape:zoom="6.6764"
     inkscape:cx="108.81613"
     inkscape:cy="52.573243"
     inkscape:window-width="3840"
     inkscape:window-height="2054"
     inkscape:window-x="-11"
     inkscape:window-y="-11"
     inkscape:window-maximized="1"
     inkscape:current-layer="layer1" /><defs
     id="defs1" /><g
     inkscape:label="Layer 1"
     inkscape:groupmode="layer"
     id="layer1"
     transform="translate(-86.259148,-95.056774)"><path
       id="path20"
       style="fill:none;stroke:#000000;stroke-width:0.264583px;stroke-linecap:butt;stroke-linejoin:miter;stroke-opacity:1"
       d="m 104.3679,98.256396 0.15972,5.462174 m 4.65577,2.86065 -4.65577,-2.86065 m 0,0 4.90164,-2.83595 m 3.29415,5.6936 -3.54002,0.003 -4.65052,2.86941 m -0.14972,5.4627 0.14972,-5.46246 m 0,0 4.90682,2.82697 m -3.28373,5.69962 -1.77281,-3.06413 -4.810246,-2.59277 m -4.805487,2.60157 4.805469,-2.60157 m 0.0052,5.66292 -0.0052,-5.66292 m -6.572677,5.66894 1.767207,-3.06737 -0.159723,-5.46218 m -4.655767,-2.86088 4.655767,2.86088 m 0,0 -4.901637,2.83595 m 4.896393,-8.56625 -4.650521,2.86942 -3.540024,0.003 m 13.150506,-5.74211 4.80549,-2.601564 1.76721,-3.067373 m -11.382939,3.076175 -0.149722,5.462452 m 0,0 -4.906823,-2.82696 0.620528,0.36521 h 0.007 m 4.429017,-3.000702 4.810241,2.592762 v 0 h -2e-6 m 2e-6,0 -0.0052,-5.662915 0.01331,0.445362 v 0 m -4.818351,2.624791 c -1.772819,-3.064131 -1.772819,-3.064131 -1.772819,-3.064131 m 0,-2e-6 13.155748,-0.01193 6.58831,11.387215 -6.56745,11.39924 -13.15575,0.0119 -6.588305,-11.3872 z m 3.27467,5.659925 6.616778,-0.006 3.31364,5.72728 -3.30315,5.73333 -6.616777,0.006 -3.313636,-5.72727 z" /></g></svg>
